<?xml version="1.0" encoding="UTF-8" standalone="no"?>
<svg
   xmlns:dc="http://purl.org/dc/elements/1.1/"
   xmlns:cc="http://creativecommons.org/ns#"
   xmlns:rdf="http://www.w3.org/1999/02/22-rdf-syntax-ns#"
   xmlns:svg="http://www.w3.org/2000/svg"
   xmlns="http://www.w3.org/2000/svg"
   xmlns:sodipodi="http://sodipodi.sourceforge.net/DTD/sodipodi-0.dtd"
   xmlns:inkscape="http://www.inkscape.org/namespaces/inkscape"
   id="logo"
   x="0px"
   y="0px"
   viewBox="0 0 180 50"
   version="1.1"
   sodipodi:docname="hamstudy.svg"
   inkscape:version="0.92.3 (2405546, 2018-03-11)"
   inkscape:label="Background"
   width="180"
   height="50">
  <metadata
     id="metadata66">
    <rdf:RDF>
      <cc:Work
         rdf:about="">
        <dc:format>image/svg+xml</dc:format>
        <dc:type
           rdf:resource="http://purl.org/dc/dcmitype/StillImage" />
        <dc:title>Hamstudy</dc:title>
      </cc:Work>
    </rdf:RDF>
  </metadata>
  <defs
     id="defs64" />
  <sodipodi:namedview
     pagecolor="#ffffff"
     bordercolor="#666666"
     borderopacity="1"
     objecttolerance="10"
     gridtolerance="10"
     guidetolerance="10"
     inkscape:pageopacity="1"
     inkscape:pageshadow="2"
     inkscape:window-width="2400"
     inkscape:window-height="1421"
     id="namedview62"
     showgrid="false"
     inkscape:zoom="5.6735905"
     inkscape:cx="90.492678"
     inkscape:cy="62.702929"
     inkscape:window-x="-9"
     inkscape:window-y="-9"
     inkscape:window-maximized="1"
     inkscape:current-layer="logo"
     inkscape:pagecheckerboard="false" />
  <style
     type="text/css"
     id="style2">
	.st0{fill:#00BCD6;}
	.st1{fill-rule:evenodd;clip-rule:evenodd;fill:#231F20;}
	.st2{fill:#231F20;}
    #Development { visibility: hidden; }
</style>
  <title
     id="title4">Hamstudy</title>
  <rect
     style="display:inline;opacity:1;fill:#ffffff;fill-opacity:1;stroke:none;stroke-width:1.16950393;stroke-linecap:square;stroke-miterlimit:4;stroke-dasharray:none"
     id="rect4577"
     width="180.66162"
     height="50.937759"
     x="-0.17625521"
     y="-0.40899596"
     ry="0" />
  <g
     id="Hamstudy"
     transform="translate(5.2876569,6.9497908)">
    <path
       id="Fill-102"
       class="st0"
       d="m 73.8,32.8 0.7,-0.7 c 2.1,2 4.5,3.1 7.4,3.1 3.5,0 5.8,-1.9 5.8,-4.4 v -0.1 c 0,-2.4 -1.4,-3.6 -6.2,-4.6 -4.9,-1 -6.9,-2.5 -6.9,-5.5 v -0.1 c 0,-2.9 2.7,-5.2 6.6,-5.2 2.8,0 5,0.9 6.9,2.4 l -0.6,0.8 c -1.8,-1.5 -4,-2.3 -6.3,-2.3 -3.3,0 -5.5,2 -5.5,4.2 v 0.1 c 0,2.3 1.4,3.6 6.3,4.6 5,1 6.8,2.6 6.8,5.5 v 0.1 c 0,3.1 -2.7,5.4 -6.8,5.4 -3.3,-0.1 -5.9,-1.2 -8.2,-3.3"
       inkscape:connector-curvature="0"
       style="fill:#00bcd6" />
    <path
       id="Fill-104"
       class="st0"
       d="m 98.5,16.4 h -7.2 v -0.9 h 15.4 v 0.9 h -7.2 v 19.3 h -1 c 0,0 0,-19.3 0,-19.3 z"
       inkscape:connector-curvature="0"
       style="fill:#00bcd6" />
    <path
       id="Fill-106"
       class="st0"
       d="M 110.4,27 V 15.5 h 1 V 27 c 0,5.4 2.9,8.2 7.3,8.2 4.4,0 7.2,-2.7 7.2,-8.1 V 15.5 h 1 v 11.4 c 0,6 -3.3,9.1 -8.2,9.1 -4.9,0 -8.3,-3 -8.3,-9"
       inkscape:connector-curvature="0"
       style="fill:#00bcd6" />
    <path
       id="Fill-108"
       class="st0"
       d="m 133.5,16.4 v 18.4 h 5.6 c 5.8,0 9.7,-4 9.7,-9.1 v -0.1 c 0,-5.1 -3.9,-9.2 -9.7,-9.2 0,0 -5.6,0 -5.6,0 z m -1,-0.9 h 6.6 c 6.3,0 10.7,4.4 10.7,10.1 v 0.1 c 0,5.7 -4.4,10.1 -10.7,10.1 h -6.6 z"
       inkscape:connector-curvature="0"
       style="fill:#00bcd6" />
    <path
       id="Fill-110"
       class="st0"
       d="m 159.4,27.4 -8.6,-11.9 h 1.2 l 7.9,11 7.9,-11 h 1.2 l -8.6,11.9 v 8.3 h -1 z"
       inkscape:connector-curvature="0"
       style="fill:#00bcd6" />
    <path
       id="Fill-112"
       class="st0"
       d="m 0,15.5 h 3.5 v 8.4 h 9.6 v -8.4 h 3.6 V 35.7 H 13.1 V 27.2 H 3.5 v 8.5 H 0 Z"
       inkscape:connector-curvature="0"
       style="fill:#00bcd6" />
    <path
       id="Fill-114"
       class="st0"
       d="m 49.6,15.5 h 3.8 l 6.1,9.5 6.1,-9.5 h 3.8 V 35.7 H 66 V 21.2 l -6.4,9.5 H 59.5 L 53.2,21.2 V 35.6 H 49.7 V 15.5 Z"
       inkscape:connector-curvature="0"
       style="fill:#00bcd6" />
    <path
       id="Fill-116"
       class="st0"
       d="M 28.3,26.2 33.2,15 38.1,26.1 H 28.3 Z M 45,33.1 34.5,9.5 C 35.5,9 36.2,7.9 36.2,6.7 36.2,5 34.8,3.6 33.1,3.6 31.4,3.6 30,5 30,6.7 30,7.9 30.7,9 31.7,9.5 L 21.3,33.1 c -0.4,0.9 0,1.9 0.9,2.3 0.9,0.4 1.9,0 2.3,-0.9 l 2.2,-4.9 h 12.9 l 2.2,4.9 c 0.3,0.7 0.9,1 1.6,1 0.2,0 0.5,0 0.7,-0.1 C 45,35 45.4,34 45,33.1 Z"
       inkscape:connector-curvature="0"
       style="fill:#00bcd6" />
    <path
       id="Fill-118"
       class="st0"
       d="m 20.7,0.3 c 0.1,-0.2 0.5,-0.3 0.7,-0.2 0.3,0.1 0.3,0.5 0.2,0.7 -1,1.7 -1.5,3.7 -1.5,5.7 0,1.9 0.5,3.7 1.3,5.4 0.1,0.1 0.1,0.3 0,0.4 0,0.1 -0.1,0.2 -0.3,0.3 -0.1,0 -0.2,0.1 -0.2,0.1 -0.2,0 -0.4,-0.1 -0.5,-0.3 -1,-1.8 -1.5,-3.8 -1.5,-5.9 0.1,-2.2 0.7,-4.3 1.8,-6.2"
       inkscape:connector-curvature="0"
       style="fill:#00bcd6" />
    <path
       id="Fill-120"
       class="st0"
       d="m 26.1,10.7 c 0.1,0 0.2,0 0.2,-0.1 0.2,-0.1 0.3,-0.4 0.2,-0.7 C 25.9,8.9 25.7,7.7 25.7,6.6 25.7,5.3 26.1,4 26.8,2.8 27,2.6 26.9,2.2 26.6,2.1 26.4,2 26.1,2 25.9,2.3 c -0.8,1.3 -1.2,2.8 -1.2,4.3 0,1.3 0.3,2.7 1,3.8 0,0.2 0.2,0.3 0.4,0.3"
       inkscape:connector-curvature="0"
       style="fill:#00bcd6" />
    <path
       id="Fill-122"
       class="st0"
       d="M 45.3,0.3 C 45.2,0.1 44.8,0 44.6,0.1 c -0.3,0.1 -0.3,0.5 -0.2,0.7 1,1.7 1.5,3.7 1.5,5.7 0,1.9 -0.5,3.7 -1.3,5.4 -0.1,0.1 -0.1,0.3 0,0.4 0,0.1 0.1,0.2 0.3,0.3 0.1,0 0.2,0.1 0.2,0.1 0.2,0 0.4,-0.1 0.5,-0.3 1,-1.8 1.5,-3.8 1.5,-5.9 C 47,4.3 46.4,2.2 45.3,0.3"
       inkscape:connector-curvature="0"
       style="fill:#00bcd6" />
    <path
       id="Fill-124"
       class="st0"
       d="m 39.9,10.7 c -0.1,0 -0.2,0 -0.2,-0.1 C 39.5,10.5 39.4,10.2 39.5,9.9 40,8.9 40.3,7.7 40.3,6.6 40.3,5.3 39.9,4 39.2,2.8 39,2.6 39.1,2.2 39.4,2.1 39.6,2 39.9,2 40.1,2.3 c 0.8,1.3 1.2,2.8 1.2,4.3 0,1.3 -0.3,2.7 -1,3.8 0,0.2 -0.2,0.3 -0.4,0.3"
       inkscape:connector-curvature="0"
       style="fill:#00bcd6" />
  </g>
  <g
     id="SignalStuff"
     transform="translate(5.2876569,6.9497908)">
    <g
       id="by">
      <path
         d="m 100.1,10.5 v 0.9 h -0.4 v -6 h 0.4 v 2.8 c 0.4,-0.6 0.9,-1 1.7,-1 1,0 2,0.8 2,2.2 v 0 c 0,1.4 -1,2.2 -2,2.2 -0.8,-0.1 -1.3,-0.5 -1.7,-1.1 z m 3.4,-1.1 v 0 c 0,-1.1 -0.8,-1.8 -1.7,-1.8 -0.9,0 -1.7,0.7 -1.7,1.8 v 0 c 0,1.1 0.8,1.8 1.7,1.8 1,0 1.7,-0.7 1.7,-1.8 z"
         id="path19"
         inkscape:connector-curvature="0" />
      <path
         d="m 108.3,7.2 h 0.4 l -1.8,4.4 c -0.4,0.9 -0.8,1.2 -1.4,1.2 -0.3,0 -0.6,-0.1 -0.8,-0.2 l 0.1,-0.4 c 0.2,0.1 0.4,0.2 0.7,0.2 0.4,0 0.7,-0.3 1,-1 l -2,-4.2 h 0.5 l 1.8,3.8 z"
         id="path21"
         inkscape:connector-curvature="0" />
    </g>
    <g
       id="Signal">
      <path
         id="Path"
         class="st1"
         d="m 118.4,0.2 0.5,1.3 0.2,-0.4 h 1.2 c 0.1,-0.2 0.2,-0.3 0.5,-0.3 0.3,0 0.5,0.2 0.5,0.5 0,0.3 -0.2,0.5 -0.5,0.5 -0.2,0 -0.4,-0.1 -0.5,-0.3 h -1 L 118.9,2.4 118.4,1 117.9,2.3 117.3,1 116.8,2.3 116.2,1 116,1.4 h -1.2 c 0,0.1 -0.2,0.2 -0.3,0.3 v 0.7 l 1,0.3 -1.3,0.4 1.3,0.4 -1.3,0.5 1.3,0.4 -1.3,0.4 0.3,0.1 v 0.9 c 0.1,0 0.2,0.2 0.3,0.3 h 1 l 0.4,-0.9 0.5,1.3 0.5,-1.3 0.5,1.3 0.5,-1.3 0.5,1.3 0.2,-0.4 h 1.2 c 0.1,-0.2 0.2,-0.3 0.5,-0.3 0.3,0 0.5,0.2 0.5,0.5 0,0.2 -0.1,0.4 -0.3,0.5 v 0.7 l 1,0.3 -1.3,0.4 1.3,0.4 -1.3,0.4 1.3,0.4 -1.3,0.4 0.3,0.1 v 0.9 c 0.2,0.1 0.3,0.2 0.3,0.5 0,0.3 -0.2,0.5 -0.5,0.5 -0.2,0 -0.4,-0.1 -0.5,-0.3 h -1 l -0.4,0.9 -0.5,-1.3 -0.5,1.3 -0.5,-1.3 -0.5,1.3 -0.5,-1.3 -0.2,0.4 h -1.2 c -0.1,0.2 -0.2,0.3 -0.5,0.3 -0.3,0 -0.5,-0.2 -0.5,-0.5 0,-0.3 0.2,-0.5 0.5,-0.5 0.2,0 0.4,0.1 0.5,0.3 h 1 l 0.4,-0.9 0.5,1.3 0.5,-1.3 0.5,1.3 0.5,-1.3 0.5,1.3 0.2,-0.4 h 1.2 c 0.1,-0.1 0.2,-0.2 0.3,-0.3 v -0.7 l -1,-0.3 1.3,-0.4 -1.3,-0.4 1.3,-0.4 -1.3,-0.4 1.3,-0.4 -0.3,-0.1 V 6.8 c -0.1,0 -0.3,-0.2 -0.3,-0.3 h -1 l -0.4,0.9 -0.5,-1.3 -0.5,1.3 -0.5,-1.3 -0.5,1.3 -0.5,-1.3 -0.2,0.4 h -1.2 c -0.1,0.2 -0.2,0.3 -0.5,0.3 -0.3,0 -0.5,-0.2 -0.5,-0.5 0,-0.2 0.1,-0.4 0.3,-0.5 V 5.1 l -1,-0.3 1.3,-0.4 -1.2,-0.4 1.3,-0.4 -1.3,-0.4 1.3,-0.4 -0.3,-0.1 V 1.8 c -0.2,-0.1 -0.3,-0.2 -0.3,-0.5 0,-0.3 0.2,-0.5 0.5,-0.5 0.2,0 0.4,0.1 0.5,0.3 h 1 l 0.4,-0.9 0.5,1.3 0.5,-1.3 0.5,1.3 z"
         inkscape:connector-curvature="0"
         style="clip-rule:evenodd;fill:#231f20;fill-rule:evenodd" />
      <path
         id="Shape"
         class="st2"
         d="m 123.6,4.4 v 0 c 0,0.4 -0.1,0.4 -0.4,0.4 h -0.1 c -0.3,0 -0.4,-0.1 -0.4,-0.4 v 0 c 0,-0.3 0.1,-0.4 0.4,-0.4 h 0.1 c 0.3,0.1 0.4,0.1 0.4,0.4 z m -0.1,1.7 V 11 c 0,0.1 -0.1,0.2 -0.2,0.2 H 123 c -0.1,0 -0.2,0 -0.2,-0.2 V 6.1 c 0,-0.1 0,-0.2 0.2,-0.2 h 0.3 c 0.2,0 0.2,0.1 0.2,0.2 z"
         inkscape:connector-curvature="0"
         style="fill:#231f20" />
      <path
         id="Shape_1_"
         class="st2"
         d="m 126.9,5.8 c 0.6,0 1.2,0.1 1.7,0.3 0.3,0.1 0.4,0.2 0.4,0.6 v 4.8 c 0,1.3 -0.6,2.2 -2.2,2.2 -0.8,0.1 -1.6,-0.4 -2,-1.1 0,0 -0.1,-0.1 0,-0.2 0,-0.1 0.1,-0.1 0.1,-0.1 l 0.2,-0.1 c 0,0 0.1,-0.1 0.2,0 0.1,0 0.1,0.1 0.1,0.1 0.3,0.5 0.8,0.9 1.4,0.8 1,0 1.5,-0.6 1.5,-1.5 V 11 c -0.5,0.2 -1.1,0.3 -1.6,0.3 -1.4,0 -2,-0.7 -2,-2 V 7.9 c 0,-1.4 0.7,-2.1 2.2,-2.1 z m 0,0.6 c -1.1,0 -1.5,0.5 -1.5,1.5 v 1.3 c -0.1,0.4 0.1,0.8 0.4,1 0.3,0.3 0.7,0.4 1,0.3 0.5,0 1,-0.1 1.5,-0.3 V 6.9 c 0,-0.2 0,-0.2 -0.2,-0.3 -0.4,-0.1 -0.8,-0.2 -1.2,-0.2 z"
         inkscape:connector-curvature="0"
         style="fill:#231f20" />
      <path
         id="Shape_2_"
         class="st2"
         d="m 132.6,5.8 c 1.4,0 2,0.7 2,2 V 11 c 0,0.1 -0.1,0.2 -0.2,0.2 h -0.3 c -0.1,0 -0.2,0 -0.2,-0.2 V 7.8 c 0,-0.9 -0.4,-1.4 -1.4,-1.4 -0.5,0 -0.9,0.1 -1.4,0.2 -0.1,0 -0.2,0.1 -0.2,0.3 V 11 c 0,0.1 0,0.2 -0.2,0.2 h -0.3 c -0.1,0 -0.2,0 -0.2,-0.2 V 6.7 c 0,-0.3 0.1,-0.4 0.4,-0.6 0.7,-0.2 1.4,-0.3 2,-0.3 z"
         inkscape:connector-curvature="0"
         style="fill:#231f20" />
      <path
         id="Shape_3_"
         class="st2"
         d="m 137.9,5.8 c 1.6,0 2,0.9 2,2 v 2.7 c 0,0.4 -0.1,0.5 -0.4,0.6 -0.5,0.2 -1.1,0.3 -1.7,0.3 -1.8,0 -2.2,-0.6 -2.2,-1.6 0,-1.2 0.6,-1.6 2.2,-1.6 0.4,0 0.9,0 1.3,0.1 V 7.8 c 0,-0.8 -0.3,-1.4 -1.4,-1.4 -0.6,-0.1 -1.1,0.2 -1.4,0.7 -0.1,0.1 -0.1,0.1 -0.3,0.1 L 135.8,7.1 C 135.7,7 135.6,7 135.7,6.8 c 0.5,-0.7 1.3,-1.1 2.2,-1 z m -0.1,2.9 c -1.1,0 -1.5,0.3 -1.5,1 0,0.7 0.3,1 1.5,1 0.4,0 0.8,0 1.2,-0.2 0.2,-0.1 0.2,-0.1 0.2,-0.3 V 8.8 c -0.5,-0.1 -0.9,-0.1 -1.4,-0.1 z"
         inkscape:connector-curvature="0"
         style="fill:#231f20" />
      <path
         id="Shape_4_"
         class="st2"
         d="m 141.7,11.1 h -0.3 c -0.1,0 -0.2,0 -0.2,-0.2 V 3.8 c 0,-0.1 0,-0.2 0.2,-0.2 h 0.3 c 0.1,0 0.2,0 0.2,0.2 V 11 c 0,0.1 -0.1,0.1 -0.2,0.1 z"
         inkscape:connector-curvature="0"
         style="fill:#231f20" />
    </g>
    <g
       id="Stuff"
       transform="translate(92)">
      <path
         id="Path_1_"
         class="st1"
         d="M 56.3,0.2 56.8,1.5 57,1.1 h 1.2 c 0.1,-0.2 0.2,-0.3 0.5,-0.3 0.3,0 0.5,0.2 0.5,0.5 0,0.3 -0.2,0.5 -0.5,0.5 -0.2,0 -0.4,-0.1 -0.5,-0.3 h -1 L 56.8,2.4 56.3,1 55.8,2.3 55.2,1 54.7,2.3 54.1,1 54,1.4 h -1.2 c 0,0.1 -0.2,0.2 -0.3,0.3 v 0.7 l 1,0.3 -1.3,0.4 1.3,0.4 -1.4,0.5 1.3,0.4 -1.3,0.4 0.3,0.2 v 0.9 c 0.1,0 0.2,0.2 0.3,0.3 h 1 l 0.4,-0.9 0.5,1.3 0.5,-1.3 0.5,1.3 0.5,-1.3 0.5,1.3 0.4,-0.4 h 1.2 c 0.1,-0.2 0.2,-0.3 0.5,-0.3 0.3,0 0.5,0.2 0.5,0.5 0,0.2 -0.1,0.4 -0.3,0.5 v 0.7 l 1,0.3 -1.3,0.4 1.3,0.4 -1.3,0.4 1.3,0.4 -1.3,0.5 0.3,0.1 V 11 c 0.2,0.1 0.3,0.2 0.3,0.5 0,0.3 -0.2,0.5 -0.5,0.5 -0.2,0 -0.4,-0.1 -0.5,-0.3 h -1 l -0.4,0.9 -0.5,-1.3 -0.5,1.3 -0.5,-1.3 -0.5,1.3 -0.5,-1.3 -0.3,0.4 H 52.8 C 52.7,11.9 52.6,12 52.3,12 52,12 51.8,11.8 51.8,11.5 51.8,11.2 52,11 52.3,11 c 0.2,0 0.4,0.1 0.5,0.3 h 1 l 0.4,-0.9 0.5,1.3 0.5,-1.3 0.5,1.3 0.5,-1.3 0.5,1.3 0.2,-0.4 h 1.2 c 0.1,-0.1 0.2,-0.2 0.3,-0.3 V 10.3 L 57.4,10 58.7,9.6 57.4,9.2 58.7,8.8 57.4,8.4 58.7,8 58.4,7.9 V 7 C 58.3,7 58.1,6.8 58.1,6.7 h -1 L 56.7,7.6 56.2,6.3 55.7,7.6 55.2,6.3 54.7,7.6 54.2,6.3 54,6.5 H 52.8 C 52.7,6.7 52.6,6.8 52.3,6.8 52,6.8 51.8,6.6 51.8,6.3 51.8,6.1 51.9,5.9 52.1,5.8 V 5.1 L 51.1,4.8 52.4,4.4 51.1,4 52.4,3.6 51.1,3.2 52.4,2.8 52.1,2.7 V 1.8 C 51.9,1.7 51.8,1.6 51.8,1.3 51.8,1 52,0.8 52.3,0.8 c 0.2,0 0.4,0.1 0.5,0.3 h 1 l 0.4,-0.9 0.5,1.3 0.5,-1.3 0.5,1.3 z"
         inkscape:connector-curvature="0"
         style="clip-rule:evenodd;fill:#231f20;fill-rule:evenodd" />
      <path
         id="Shape_5_"
         class="st2"
         d="m 62.2,5 v 1 h 1.5 c 0.1,0 0.2,0 0.2,0.2 v 0.3 c 0,0.1 0,0.2 -0.2,0.2 h -1.5 v 2.6 c 0,1.2 0.4,1.4 1.5,1.4 0.1,0 0.2,0.1 0.2,0.2 v 0.3 c 0,0.1 0,0.2 -0.2,0.2 -1.6,0 -2.1,-0.4 -2.1,-2.1 V 6.7 h -1 c -0.1,0 -0.2,0 -0.2,-0.2 V 6.3 c 0,-0.1 0,-0.2 0.2,-0.2 h 1 V 5 c 0,-0.1 0.1,-0.2 0.2,-0.2 H 62 c 0.1,0.1 0.2,0.1 0.2,0.2 z"
         inkscape:connector-curvature="0"
         style="fill:#231f20" />
      <path
         id="Shape_6_"
         class="st2"
         d="m 68.9,6.3 v 4.3 c 0,0.3 -0.1,0.4 -0.4,0.6 -0.6,0.2 -1.3,0.4 -1.9,0.3 -1.4,0 -2,-0.7 -2,-2 V 6.3 c 0,-0.1 0,-0.2 0.2,-0.2 h 0.3 c 0.1,0 0.2,0 0.2,0.2 v 3.2 c -0.1,0.4 0.1,0.8 0.4,1.1 0.3,0.3 0.7,0.4 1.1,0.3 0.5,0 0.9,-0.1 1.3,-0.2 0.1,0 0.2,-0.2 0.2,-0.3 v -4 c 0,-0.1 0,-0.2 0.2,-0.2 h 0.3 c 0,-0.1 0.1,-0.1 0.1,0.1 z"
         inkscape:connector-curvature="0"
         style="fill:#231f20" />
      <path
         id="Shape_7_"
         class="st2"
         d="m 73.1,4 v 0.3 c 0,0.1 0,0.2 -0.2,0.2 -1.1,0 -1.5,0.3 -1.5,1.4 v 0.3 h 1.5 c 0.1,0 0.2,0 0.2,0.2 v 0.3 c 0,0.1 0,0.2 -0.2,0.2 h -1.5 v 4.4 c 0,0.1 0,0.2 -0.2,0.2 h -0.3 c -0.1,0 -0.2,0 -0.2,-0.2 V 6.7 h -0.9 c -0.1,0 -0.2,0 -0.2,-0.2 V 6.3 c 0,-0.1 0,-0.2 0.2,-0.2 h 0.9 V 5.8 c 0,-1.4 0.6,-2 2.1,-2 h 0.1 c 0.1,0 0.2,0 0.2,0.2 z"
         inkscape:connector-curvature="0"
         style="fill:#231f20" />
      <path
         id="Shape_8_"
         class="st2"
         d="m 76.7,4 v 0.3 c 0,0.1 0,0.2 -0.2,0.2 -1.1,0 -1.5,0.3 -1.5,1.4 v 0.3 h 1.5 c 0.1,0 0.2,0 0.2,0.2 v 0.3 c 0,0.1 0,0.2 -0.2,0.2 H 75 v 4.4 c 0,0.1 0,0.2 -0.2,0.2 h -0.3 c -0.1,0 -0.2,0 -0.2,-0.2 V 6.7 h -0.9 c -0.1,0 -0.2,0 -0.2,-0.2 V 6.3 c 0,-0.1 0,-0.2 0.2,-0.2 h 0.9 V 5.8 c 0,-1.4 0.6,-2 2.1,-2 h 0.1 c 0.1,0 0.2,0 0.2,0.2 z"
         inkscape:connector-curvature="0"
         style="fill:#231f20" />
    </g>
  </g>
</svg>
